<mxfile host="app.diagrams.net" modified="2021-06-18T08:57:28.134Z" agent="5.0 (Windows NT 10.0; Win64; x64) AppleWebKit/537.36 (KHTML, like Gecko) Chrome/91.0.4472.101 Safari/537.36" etag="_INiK7HNdogLM6emvfyH" version="14.7.10" type="github">
  <diagram id="8QRSH-10Up09Y32x3_zO" name="Page-1">
    <mxGraphModel dx="2782" dy="1090" grid="1" gridSize="10" guides="1" tooltips="1" connect="1" arrows="1" fold="1" page="1" pageScale="1" pageWidth="827" pageHeight="1169" math="0" shadow="0">
      <root>
        <mxCell id="0" />
        <mxCell id="1" parent="0" />
        <mxCell id="gD6UAD7ELVqAk3l5E39R-15" style="edgeStyle=orthogonalEdgeStyle;rounded=0;orthogonalLoop=1;jettySize=auto;html=1;exitX=0.5;exitY=1;exitDx=0;exitDy=0;entryX=0.475;entryY=0.25;entryDx=0;entryDy=0;entryPerimeter=0;endArrow=none;endFill=0;" edge="1" parent="1" source="Na6LBBD7Vsr4LCsbZq8r-1" target="gD6UAD7ELVqAk3l5E39R-14">
          <mxGeometry relative="1" as="geometry" />
        </mxCell>
        <mxCell id="Na6LBBD7Vsr4LCsbZq8r-1" value="&lt;span style=&quot;font-size: 24px&quot;&gt;사용자&lt;/span&gt;" style="whiteSpace=wrap;html=1;aspect=fixed;" parent="1" vertex="1">
          <mxGeometry x="-60" y="250" width="110" height="110" as="geometry" />
        </mxCell>
        <mxCell id="Na6LBBD7Vsr4LCsbZq8r-13" style="edgeStyle=orthogonalEdgeStyle;rounded=0;orthogonalLoop=1;jettySize=auto;html=1;exitX=1;exitY=0.5;exitDx=0;exitDy=0;endArrow=none;endFill=0;" parent="1" source="Na6LBBD7Vsr4LCsbZq8r-2" target="Na6LBBD7Vsr4LCsbZq8r-1" edge="1">
          <mxGeometry relative="1" as="geometry" />
        </mxCell>
        <mxCell id="Na6LBBD7Vsr4LCsbZq8r-2" value="&lt;font style=&quot;font-size: 24px&quot;&gt;아이디&lt;/font&gt;" style="ellipse;whiteSpace=wrap;html=1;" parent="1" vertex="1">
          <mxGeometry x="-370" y="260" width="120" height="80" as="geometry" />
        </mxCell>
        <mxCell id="Na6LBBD7Vsr4LCsbZq8r-15" style="edgeStyle=orthogonalEdgeStyle;rounded=0;orthogonalLoop=1;jettySize=auto;html=1;exitX=1;exitY=1;exitDx=0;exitDy=0;entryX=0;entryY=0;entryDx=0;entryDy=0;endArrow=none;endFill=0;" parent="1" source="Na6LBBD7Vsr4LCsbZq8r-4" target="Na6LBBD7Vsr4LCsbZq8r-1" edge="1">
          <mxGeometry relative="1" as="geometry" />
        </mxCell>
        <mxCell id="Na6LBBD7Vsr4LCsbZq8r-4" value="&lt;font style=&quot;font-size: 24px&quot;&gt;비밀번호확인&lt;/font&gt;" style="ellipse;whiteSpace=wrap;html=1;" parent="1" vertex="1">
          <mxGeometry x="-240" y="90" width="120" height="80" as="geometry" />
        </mxCell>
        <mxCell id="Na6LBBD7Vsr4LCsbZq8r-14" style="edgeStyle=orthogonalEdgeStyle;rounded=0;orthogonalLoop=1;jettySize=auto;html=1;exitX=1;exitY=1;exitDx=0;exitDy=0;entryX=0;entryY=0.25;entryDx=0;entryDy=0;endArrow=none;endFill=0;" parent="1" source="Na6LBBD7Vsr4LCsbZq8r-5" target="Na6LBBD7Vsr4LCsbZq8r-1" edge="1">
          <mxGeometry relative="1" as="geometry" />
        </mxCell>
        <mxCell id="Na6LBBD7Vsr4LCsbZq8r-5" value="&lt;font style=&quot;font-size: 24px&quot;&gt;비밀번호&lt;/font&gt;" style="ellipse;whiteSpace=wrap;html=1;" parent="1" vertex="1">
          <mxGeometry x="-340" y="160" width="120" height="80" as="geometry" />
        </mxCell>
        <mxCell id="Na6LBBD7Vsr4LCsbZq8r-16" style="edgeStyle=orthogonalEdgeStyle;rounded=0;orthogonalLoop=1;jettySize=auto;html=1;exitX=1;exitY=1;exitDx=0;exitDy=0;endArrow=none;endFill=0;" parent="1" source="Na6LBBD7Vsr4LCsbZq8r-6" target="Na6LBBD7Vsr4LCsbZq8r-1" edge="1">
          <mxGeometry relative="1" as="geometry" />
        </mxCell>
        <mxCell id="Na6LBBD7Vsr4LCsbZq8r-6" value="&lt;font style=&quot;font-size: 24px&quot;&gt;이름&lt;/font&gt;" style="ellipse;whiteSpace=wrap;html=1;" parent="1" vertex="1">
          <mxGeometry x="-120" y="50" width="120" height="80" as="geometry" />
        </mxCell>
        <mxCell id="Na6LBBD7Vsr4LCsbZq8r-17" style="edgeStyle=orthogonalEdgeStyle;rounded=0;orthogonalLoop=1;jettySize=auto;html=1;exitX=0;exitY=1;exitDx=0;exitDy=0;entryX=0.75;entryY=0;entryDx=0;entryDy=0;endArrow=none;endFill=0;" parent="1" source="Na6LBBD7Vsr4LCsbZq8r-7" target="Na6LBBD7Vsr4LCsbZq8r-1" edge="1">
          <mxGeometry relative="1" as="geometry" />
        </mxCell>
        <mxCell id="Na6LBBD7Vsr4LCsbZq8r-7" value="&lt;font style=&quot;font-size: 24px&quot;&gt;닉네임&lt;/font&gt;" style="ellipse;whiteSpace=wrap;html=1;fillColor=#dae8fc;strokeColor=#6c8ebf;" parent="1" vertex="1">
          <mxGeometry x="20" y="50" width="120" height="80" as="geometry" />
        </mxCell>
        <mxCell id="Na6LBBD7Vsr4LCsbZq8r-18" style="edgeStyle=orthogonalEdgeStyle;rounded=0;orthogonalLoop=1;jettySize=auto;html=1;exitX=0;exitY=1;exitDx=0;exitDy=0;entryX=1;entryY=0.25;entryDx=0;entryDy=0;endArrow=none;endFill=0;" parent="1" source="Na6LBBD7Vsr4LCsbZq8r-8" target="Na6LBBD7Vsr4LCsbZq8r-1" edge="1">
          <mxGeometry relative="1" as="geometry" />
        </mxCell>
        <mxCell id="Na6LBBD7Vsr4LCsbZq8r-8" value="&lt;font style=&quot;font-size: 24px&quot;&gt;생년월일&lt;/font&gt;" style="ellipse;whiteSpace=wrap;html=1;" parent="1" vertex="1">
          <mxGeometry x="140" y="100" width="120" height="80" as="geometry" />
        </mxCell>
        <mxCell id="Na6LBBD7Vsr4LCsbZq8r-19" style="edgeStyle=orthogonalEdgeStyle;rounded=0;orthogonalLoop=1;jettySize=auto;html=1;exitX=0;exitY=0.5;exitDx=0;exitDy=0;entryX=1;entryY=0.5;entryDx=0;entryDy=0;endArrow=none;endFill=0;" parent="1" source="Na6LBBD7Vsr4LCsbZq8r-9" target="Na6LBBD7Vsr4LCsbZq8r-1" edge="1">
          <mxGeometry relative="1" as="geometry" />
        </mxCell>
        <mxCell id="Na6LBBD7Vsr4LCsbZq8r-9" value="&lt;font style=&quot;font-size: 24px&quot;&gt;성별&lt;/font&gt;" style="ellipse;whiteSpace=wrap;html=1;" parent="1" vertex="1">
          <mxGeometry x="230" y="180" width="120" height="80" as="geometry" />
        </mxCell>
        <mxCell id="Na6LBBD7Vsr4LCsbZq8r-20" style="edgeStyle=orthogonalEdgeStyle;rounded=0;orthogonalLoop=1;jettySize=auto;html=1;exitX=0;exitY=0.5;exitDx=0;exitDy=0;entryX=1;entryY=0.75;entryDx=0;entryDy=0;endArrow=none;endFill=0;" parent="1" source="Na6LBBD7Vsr4LCsbZq8r-12" target="Na6LBBD7Vsr4LCsbZq8r-1" edge="1">
          <mxGeometry relative="1" as="geometry" />
        </mxCell>
        <mxCell id="Na6LBBD7Vsr4LCsbZq8r-12" value="&lt;span style=&quot;font-size: 24px&quot;&gt;휴대폰번호&lt;/span&gt;" style="ellipse;whiteSpace=wrap;html=1;" parent="1" vertex="1">
          <mxGeometry x="270" y="260" width="120" height="80" as="geometry" />
        </mxCell>
        <mxCell id="Na6LBBD7Vsr4LCsbZq8r-21" value="&lt;span style=&quot;font-size: 24px&quot;&gt;프로필&lt;br&gt;&lt;/span&gt;" style="whiteSpace=wrap;html=1;aspect=fixed;" parent="1" vertex="1">
          <mxGeometry x="-480" y="595" width="110" height="110" as="geometry" />
        </mxCell>
        <mxCell id="Na6LBBD7Vsr4LCsbZq8r-25" style="edgeStyle=orthogonalEdgeStyle;rounded=0;orthogonalLoop=1;jettySize=auto;html=1;exitX=1;exitY=0.5;exitDx=0;exitDy=0;endArrow=none;endFill=0;" parent="1" source="Na6LBBD7Vsr4LCsbZq8r-22" target="Na6LBBD7Vsr4LCsbZq8r-21" edge="1">
          <mxGeometry relative="1" as="geometry" />
        </mxCell>
        <mxCell id="Na6LBBD7Vsr4LCsbZq8r-22" value="&lt;font style=&quot;font-size: 24px&quot;&gt;닉네임&lt;/font&gt;" style="ellipse;whiteSpace=wrap;html=1;fillColor=#dae8fc;strokeColor=#6c8ebf;" parent="1" vertex="1">
          <mxGeometry x="-740" y="515" width="120" height="80" as="geometry" />
        </mxCell>
        <mxCell id="Na6LBBD7Vsr4LCsbZq8r-74" style="edgeStyle=orthogonalEdgeStyle;rounded=0;orthogonalLoop=1;jettySize=auto;html=1;exitX=1;exitY=0.5;exitDx=0;exitDy=0;entryX=0;entryY=0.75;entryDx=0;entryDy=0;endArrow=none;endFill=0;" parent="1" source="Na6LBBD7Vsr4LCsbZq8r-24" target="Na6LBBD7Vsr4LCsbZq8r-21" edge="1">
          <mxGeometry relative="1" as="geometry" />
        </mxCell>
        <mxCell id="Na6LBBD7Vsr4LCsbZq8r-24" value="&lt;font style=&quot;font-size: 24px&quot;&gt;소개&lt;/font&gt;" style="ellipse;whiteSpace=wrap;html=1;" parent="1" vertex="1">
          <mxGeometry x="-770" y="625" width="120" height="80" as="geometry" />
        </mxCell>
        <mxCell id="Na6LBBD7Vsr4LCsbZq8r-31" style="edgeStyle=orthogonalEdgeStyle;rounded=0;orthogonalLoop=1;jettySize=auto;html=1;exitX=1;exitY=0;exitDx=0;exitDy=0;entryX=0.25;entryY=1;entryDx=0;entryDy=0;endArrow=ERone;endFill=0;" parent="1" source="Na6LBBD7Vsr4LCsbZq8r-30" target="Na6LBBD7Vsr4LCsbZq8r-1" edge="1">
          <mxGeometry relative="1" as="geometry" />
        </mxCell>
        <mxCell id="Na6LBBD7Vsr4LCsbZq8r-32" style="edgeStyle=orthogonalEdgeStyle;rounded=0;orthogonalLoop=1;jettySize=auto;html=1;exitX=0;exitY=1;exitDx=0;exitDy=0;entryX=0.5;entryY=0;entryDx=0;entryDy=0;endArrow=ERone;endFill=0;" parent="1" source="Na6LBBD7Vsr4LCsbZq8r-30" target="Na6LBBD7Vsr4LCsbZq8r-21" edge="1">
          <mxGeometry relative="1" as="geometry" />
        </mxCell>
        <mxCell id="Na6LBBD7Vsr4LCsbZq8r-30" value="&lt;font style=&quot;font-size: 24px&quot;&gt;소속&lt;/font&gt;" style="rhombus;whiteSpace=wrap;html=1;" parent="1" vertex="1">
          <mxGeometry x="-330" y="430" width="80" height="80" as="geometry" />
        </mxCell>
        <mxCell id="Na6LBBD7Vsr4LCsbZq8r-107" style="edgeStyle=orthogonalEdgeStyle;rounded=0;orthogonalLoop=1;jettySize=auto;html=1;exitX=1;exitY=0;exitDx=0;exitDy=0;entryX=0;entryY=1;entryDx=0;entryDy=0;endArrow=ERone;endFill=0;" parent="1" source="Na6LBBD7Vsr4LCsbZq8r-40" target="Na6LBBD7Vsr4LCsbZq8r-21" edge="1">
          <mxGeometry relative="1" as="geometry" />
        </mxCell>
        <mxCell id="Na6LBBD7Vsr4LCsbZq8r-40" value="&lt;font style=&quot;font-size: 24px&quot;&gt;프로필사진&lt;/font&gt;" style="ellipse;whiteSpace=wrap;html=1;" parent="1" vertex="1">
          <mxGeometry x="-760" y="730" width="120" height="80" as="geometry" />
        </mxCell>
        <mxCell id="gD6UAD7ELVqAk3l5E39R-18" style="edgeStyle=orthogonalEdgeStyle;rounded=0;orthogonalLoop=1;jettySize=auto;html=1;exitX=0.5;exitY=1;exitDx=0;exitDy=0;entryX=0.5;entryY=0;entryDx=0;entryDy=0;endArrow=none;endFill=0;" edge="1" parent="1" source="Na6LBBD7Vsr4LCsbZq8r-61" target="gD6UAD7ELVqAk3l5E39R-17">
          <mxGeometry relative="1" as="geometry" />
        </mxCell>
        <mxCell id="Na6LBBD7Vsr4LCsbZq8r-61" value="&lt;span style=&quot;font-size: 24px&quot;&gt;채팅방&lt;br&gt;조인&lt;br&gt;&lt;/span&gt;" style="whiteSpace=wrap;html=1;aspect=fixed;" parent="1" vertex="1">
          <mxGeometry x="180" y="550" width="110" height="110" as="geometry" />
        </mxCell>
        <mxCell id="gD6UAD7ELVqAk3l5E39R-11" style="edgeStyle=orthogonalEdgeStyle;rounded=0;orthogonalLoop=1;jettySize=auto;html=1;exitX=0;exitY=0.5;exitDx=0;exitDy=0;entryX=1;entryY=0.25;entryDx=0;entryDy=0;endArrow=none;endFill=0;" edge="1" parent="1" source="Na6LBBD7Vsr4LCsbZq8r-63" target="Na6LBBD7Vsr4LCsbZq8r-61">
          <mxGeometry relative="1" as="geometry" />
        </mxCell>
        <mxCell id="Na6LBBD7Vsr4LCsbZq8r-63" value="&lt;span style=&quot;font-size: 24px&quot;&gt;사용자ID&lt;/span&gt;" style="ellipse;whiteSpace=wrap;html=1;" parent="1" vertex="1">
          <mxGeometry x="330" y="515" width="120" height="80" as="geometry" />
        </mxCell>
        <mxCell id="gD6UAD7ELVqAk3l5E39R-12" style="edgeStyle=orthogonalEdgeStyle;rounded=0;orthogonalLoop=1;jettySize=auto;html=1;exitX=0;exitY=0.5;exitDx=0;exitDy=0;entryX=1;entryY=0.75;entryDx=0;entryDy=0;endArrow=none;endFill=0;" edge="1" parent="1" source="Na6LBBD7Vsr4LCsbZq8r-70" target="Na6LBBD7Vsr4LCsbZq8r-61">
          <mxGeometry relative="1" as="geometry" />
        </mxCell>
        <mxCell id="Na6LBBD7Vsr4LCsbZq8r-70" value="&lt;span style=&quot;font-size: 24px&quot;&gt;방ID&lt;/span&gt;" style="ellipse;whiteSpace=wrap;html=1;" parent="1" vertex="1">
          <mxGeometry x="330" y="600" width="120" height="80" as="geometry" />
        </mxCell>
        <mxCell id="Na6LBBD7Vsr4LCsbZq8r-73" style="edgeStyle=orthogonalEdgeStyle;rounded=0;orthogonalLoop=1;jettySize=auto;html=1;exitX=1;exitY=1;exitDx=0;exitDy=0;entryX=0.25;entryY=0;entryDx=0;entryDy=0;endArrow=none;endFill=0;" parent="1" source="Na6LBBD7Vsr4LCsbZq8r-72" target="Na6LBBD7Vsr4LCsbZq8r-21" edge="1">
          <mxGeometry relative="1" as="geometry" />
        </mxCell>
        <mxCell id="Na6LBBD7Vsr4LCsbZq8r-72" value="&lt;span style=&quot;font-size: 24px&quot;&gt;아이디&lt;/span&gt;" style="ellipse;whiteSpace=wrap;html=1;" parent="1" vertex="1">
          <mxGeometry x="-630" y="430" width="120" height="80" as="geometry" />
        </mxCell>
        <mxCell id="Na6LBBD7Vsr4LCsbZq8r-84" style="edgeStyle=orthogonalEdgeStyle;rounded=0;orthogonalLoop=1;jettySize=auto;html=1;exitX=1;exitY=0.5;exitDx=0;exitDy=0;entryX=0;entryY=0.5;entryDx=0;entryDy=0;endArrow=none;endFill=0;" parent="1" target="Na6LBBD7Vsr4LCsbZq8r-101" edge="1">
          <mxGeometry relative="1" as="geometry">
            <mxPoint x="-370" y="670" as="sourcePoint" />
          </mxGeometry>
        </mxCell>
        <mxCell id="Na6LBBD7Vsr4LCsbZq8r-86" value="&lt;span style=&quot;font-size: 24px&quot;&gt;팔로워/팔로잉&lt;br&gt;&lt;/span&gt;" style="whiteSpace=wrap;html=1;aspect=fixed;" parent="1" vertex="1">
          <mxGeometry x="-440" y="860" width="110" height="110" as="geometry" />
        </mxCell>
        <mxCell id="Na6LBBD7Vsr4LCsbZq8r-88" style="edgeStyle=orthogonalEdgeStyle;rounded=0;orthogonalLoop=1;jettySize=auto;html=1;exitX=0;exitY=0.5;exitDx=0;exitDy=0;entryX=1;entryY=0.25;entryDx=0;entryDy=0;endArrow=none;endFill=0;" parent="1" source="Na6LBBD7Vsr4LCsbZq8r-89" target="Na6LBBD7Vsr4LCsbZq8r-86" edge="1">
          <mxGeometry relative="1" as="geometry" />
        </mxCell>
        <mxCell id="Na6LBBD7Vsr4LCsbZq8r-89" value="&lt;span style=&quot;font-size: 24px&quot;&gt;내&lt;br&gt;닉네임&lt;/span&gt;" style="ellipse;whiteSpace=wrap;html=1;fillColor=#dae8fc;strokeColor=#6c8ebf;" parent="1" vertex="1">
          <mxGeometry x="-210" y="840" width="120" height="80" as="geometry" />
        </mxCell>
        <mxCell id="Na6LBBD7Vsr4LCsbZq8r-90" style="edgeStyle=orthogonalEdgeStyle;rounded=0;orthogonalLoop=1;jettySize=auto;html=1;exitX=0;exitY=0.5;exitDx=0;exitDy=0;entryX=1;entryY=0.75;entryDx=0;entryDy=0;endArrow=none;endFill=0;" parent="1" source="Na6LBBD7Vsr4LCsbZq8r-91" target="Na6LBBD7Vsr4LCsbZq8r-86" edge="1">
          <mxGeometry relative="1" as="geometry" />
        </mxCell>
        <mxCell id="Na6LBBD7Vsr4LCsbZq8r-91" value="&lt;span style=&quot;font-size: 24px&quot;&gt;상대&lt;br&gt;닉네임&lt;/span&gt;" style="ellipse;whiteSpace=wrap;html=1;" parent="1" vertex="1">
          <mxGeometry x="-210" y="930" width="120" height="80" as="geometry" />
        </mxCell>
        <mxCell id="Na6LBBD7Vsr4LCsbZq8r-100" style="edgeStyle=orthogonalEdgeStyle;rounded=0;orthogonalLoop=1;jettySize=auto;html=1;exitX=1;exitY=0.5;exitDx=0;exitDy=0;entryX=0;entryY=0.5;entryDx=0;entryDy=0;endArrow=none;endFill=0;" parent="1" source="Na6LBBD7Vsr4LCsbZq8r-101" target="Na6LBBD7Vsr4LCsbZq8r-86" edge="1">
          <mxGeometry relative="1" as="geometry" />
        </mxCell>
        <mxCell id="Na6LBBD7Vsr4LCsbZq8r-101" value="&lt;font style=&quot;font-size: 24px&quot;&gt;소속&lt;/font&gt;" style="rhombus;whiteSpace=wrap;html=1;" parent="1" vertex="1">
          <mxGeometry x="-240" y="680" width="80" height="80" as="geometry" />
        </mxCell>
        <mxCell id="Na6LBBD7Vsr4LCsbZq8r-111" style="edgeStyle=orthogonalEdgeStyle;rounded=0;orthogonalLoop=1;jettySize=auto;html=1;exitX=0;exitY=0;exitDx=0;exitDy=0;entryX=1;entryY=1;entryDx=0;entryDy=0;endArrow=none;endFill=0;" parent="1" source="Na6LBBD7Vsr4LCsbZq8r-105" target="Na6LBBD7Vsr4LCsbZq8r-1" edge="1">
          <mxGeometry relative="1" as="geometry" />
        </mxCell>
        <mxCell id="Na6LBBD7Vsr4LCsbZq8r-105" value="&lt;span style=&quot;font-size: 24px&quot;&gt;생성일&lt;/span&gt;" style="ellipse;whiteSpace=wrap;html=1;" parent="1" vertex="1">
          <mxGeometry x="270" y="350" width="120" height="80" as="geometry" />
        </mxCell>
        <mxCell id="Na6LBBD7Vsr4LCsbZq8r-110" style="edgeStyle=orthogonalEdgeStyle;rounded=0;orthogonalLoop=1;jettySize=auto;html=1;exitX=0;exitY=0;exitDx=0;exitDy=0;entryX=0.75;entryY=1;entryDx=0;entryDy=0;endArrow=none;endFill=0;" parent="1" source="Na6LBBD7Vsr4LCsbZq8r-106" target="Na6LBBD7Vsr4LCsbZq8r-1" edge="1">
          <mxGeometry relative="1" as="geometry" />
        </mxCell>
        <mxCell id="Na6LBBD7Vsr4LCsbZq8r-106" value="&lt;span style=&quot;font-size: 24px&quot;&gt;수정일&lt;/span&gt;" style="ellipse;whiteSpace=wrap;html=1;" parent="1" vertex="1">
          <mxGeometry x="130" y="390" width="120" height="80" as="geometry" />
        </mxCell>
        <mxCell id="gD6UAD7ELVqAk3l5E39R-9" value="&lt;span style=&quot;font-size: 24px&quot;&gt;채팅방&lt;br&gt;&lt;/span&gt;" style="whiteSpace=wrap;html=1;aspect=fixed;" vertex="1" parent="1">
          <mxGeometry x="180" y="820" width="110" height="110" as="geometry" />
        </mxCell>
        <mxCell id="gD6UAD7ELVqAk3l5E39R-16" style="edgeStyle=orthogonalEdgeStyle;rounded=0;orthogonalLoop=1;jettySize=auto;html=1;exitX=1;exitY=0.5;exitDx=0;exitDy=0;endArrow=none;endFill=0;" edge="1" parent="1" source="gD6UAD7ELVqAk3l5E39R-14" target="Na6LBBD7Vsr4LCsbZq8r-61">
          <mxGeometry relative="1" as="geometry" />
        </mxCell>
        <mxCell id="gD6UAD7ELVqAk3l5E39R-14" value="&lt;font style=&quot;font-size: 24px&quot;&gt;들어감&lt;/font&gt;" style="rhombus;whiteSpace=wrap;html=1;" vertex="1" parent="1">
          <mxGeometry x="20" y="530" width="80" height="80" as="geometry" />
        </mxCell>
        <mxCell id="gD6UAD7ELVqAk3l5E39R-19" style="edgeStyle=orthogonalEdgeStyle;rounded=0;orthogonalLoop=1;jettySize=auto;html=1;exitX=0.5;exitY=1;exitDx=0;exitDy=0;endArrow=none;endFill=0;" edge="1" parent="1" source="gD6UAD7ELVqAk3l5E39R-17" target="gD6UAD7ELVqAk3l5E39R-9">
          <mxGeometry relative="1" as="geometry" />
        </mxCell>
        <mxCell id="gD6UAD7ELVqAk3l5E39R-17" value="&lt;font style=&quot;font-size: 24px&quot;&gt;들어감&lt;/font&gt;" style="rhombus;whiteSpace=wrap;html=1;" vertex="1" parent="1">
          <mxGeometry x="195" y="700" width="80" height="80" as="geometry" />
        </mxCell>
      </root>
    </mxGraphModel>
  </diagram>
</mxfile>
